<?xml version="1.0" encoding="utf-8"?>
<!-- Generator: Adobe Illustrator 17.0.0, SVG Export Plug-In . SVG Version: 6.00 Build 0)  -->
<!DOCTYPE svg PUBLIC "-//W3C//DTD SVG 1.1//EN" "http://www.w3.org/Graphics/SVG/1.1/DTD/svg11.dtd">
<svg version="1.1" xmlns="http://www.w3.org/2000/svg" xmlns:xlink="http://www.w3.org/1999/xlink" x="0px" y="0px" width="44px"
	 height="44px" viewBox="0 0 44 44" enable-background="new 0 0 44 44" xml:space="preserve">
<g id="Layer_1">
	<circle fill="#00BFFF" stroke="#444444" stroke-width="3" stroke-miterlimit="10" cx="22" cy="22" r="20.5"/>
	<g>
		<path fill="#444444" d="M31.915,13.397c-0.005-0.006-0.008-0.012-0.01-0.015c-0.005-0.008-0.013-0.013-0.015-0.02
			c-0.145-0.199-0.374-0.328-0.637-0.328h-0.001H17.874h-0.002c-0.436,0-0.787,0.353-0.787,0.788v0.001v0.687v2.581v1.452v2.581
			v1.45v2.58v1.451v2.581v0.686l0,0c0,0.158,0.047,0.305,0.127,0.428c0.004,0.004,0.005,0.009,0.008,0.013
			c0.006,0.008,0.013,0.013,0.016,0.019c0.144,0.199,0.374,0.329,0.637,0.329h0.001h0.979c-0.165,1.069-1.082,1.893-2.197,1.893
			c-1.126,0-2.051-0.841-2.2-1.929h0.988l0,0c0.436,0,0.788-0.353,0.788-0.787v-0.001v-0.686v-2.581V25.12v-2.58v-1.451v-2.582
			v-1.451v-2.58v-0.688v-0.001c0-0.156-0.046-0.303-0.126-0.424c-0.003-0.004-0.006-0.011-0.01-0.015
			c-0.003-0.008-0.009-0.013-0.015-0.019C15.938,13.13,15.707,13,15.444,13l0,0h-2.695h-0.001c-0.435,0-0.787,0.353-0.787,0.787
			v0.001v0.687v2.58v1.451v2.581v1.451v2.58v1.451v2.581v0.687v0.001c0,0.158,0.046,0.305,0.126,0.427
			c0.004,0.004,0.006,0.01,0.009,0.013c0.005,0.008,0.011,0.013,0.015,0.02c0.145,0.199,0.374,0.328,0.637,0.328h0.001h1.173
			c0.153,1.38,1.313,2.461,2.733,2.461c1.409,0,2.563-1.064,2.731-2.427h11.865h0.001c0.436,0,0.787-0.354,0.787-0.787v-0.001
			v-0.687v-2.581v-1.45v-2.58v-1.451v-2.581v-1.451V14.51v-0.687v-0.001C32.041,13.665,31.994,13.518,31.915,13.397z M22.153,24.911
			c0,0.186-0.151,0.335-0.336,0.335h-1.853c-0.186,0-0.336-0.149-0.336-0.335v-0.785c0-0.185,0.15-0.335,0.336-0.335h1.853
			c0.186,0,0.336,0.151,0.336,0.335C22.153,24.126,22.153,24.911,22.153,24.911z M22.153,22.24c0,0.186-0.151,0.336-0.336,0.336
			h-1.853c-0.186,0-0.336-0.151-0.336-0.336v-0.785c0-0.186,0.15-0.336,0.336-0.336h1.853c0.186,0,0.336,0.151,0.336,0.336
			C22.153,21.456,22.153,22.24,22.153,22.24z M22.153,19.57c0,0.185-0.151,0.336-0.336,0.336h-1.853
			c-0.186,0-0.336-0.151-0.336-0.336v-0.785c0-0.186,0.15-0.336,0.336-0.336h1.853c0.186,0,0.336,0.151,0.336,0.336
			C22.153,18.785,22.153,19.57,22.153,19.57z M25.826,24.911c0,0.186-0.149,0.335-0.336,0.335h-1.852
			c-0.187,0-0.336-0.149-0.336-0.335v-0.785c0-0.185,0.149-0.335,0.336-0.335h1.852c0.187,0,0.336,0.151,0.336,0.335
			C25.826,24.126,25.826,24.911,25.826,24.911z M25.826,22.24c0,0.186-0.149,0.336-0.336,0.336h-1.852
			c-0.187,0-0.336-0.151-0.336-0.336v-0.785c0-0.186,0.149-0.336,0.336-0.336h1.852c0.187,0,0.336,0.151,0.336,0.336
			C25.826,21.456,25.826,22.24,25.826,22.24z M25.826,19.57c0,0.185-0.149,0.336-0.336,0.336h-1.852
			c-0.187,0-0.336-0.151-0.336-0.336v-0.785c0-0.186,0.149-0.336,0.336-0.336h1.852c0.187,0,0.336,0.151,0.336,0.336
			C25.826,18.785,25.826,19.57,25.826,19.57z M29.5,24.911c0,0.186-0.151,0.335-0.338,0.335h-1.851
			c-0.187,0-0.337-0.149-0.337-0.335v-0.785c0-0.185,0.15-0.335,0.337-0.335h1.851c0.187,0,0.338,0.151,0.338,0.335V24.911z
			 M29.5,22.24c0,0.186-0.151,0.336-0.338,0.336h-1.851c-0.187,0-0.337-0.151-0.337-0.336v-0.785c0-0.186,0.15-0.336,0.337-0.336
			h1.851c0.187,0,0.338,0.151,0.338,0.336V22.24z M29.5,19.57c0,0.185-0.151,0.336-0.338,0.336h-1.851
			c-0.187,0-0.337-0.151-0.337-0.336v-0.785c0-0.186,0.15-0.336,0.337-0.336h1.851c0.187,0,0.338,0.151,0.338,0.336V19.57z"/>
	</g>
</g>
<g id="Layer_2" display="none">
	<circle display="inline" fill="#00BFFF" stroke="#444444" stroke-miterlimit="10" cx="22" cy="22" r="20.5"/>
	<g display="inline">
		<path fill="#FFFFFF" d="M1.812,42.188l2.784-10.094c-1.81-3.133-2.784-6.613-2.784-10.233c0-10.999,9.05-20.048,20.118-20.048
			s20.257,9.05,20.257,20.048S32.999,42.188,21.93,42.188c-3.481,0-6.822-1.114-9.815-2.784L1.812,42.188z"/>
		<path fill="#55CD6C" d="M12.672,35.783l0.627,0.348c2.576,1.601,5.569,2.576,8.702,2.576c9.119,0,16.707-7.588,16.707-16.846
			S31.119,5.293,21.93,5.293S5.293,12.672,5.293,21.861c0,3.202,0.905,6.335,2.576,8.98l0.418,0.627l-1.601,5.847L12.672,35.783z"/>
		<path fill="#FEFEFE" d="M16.57,12.533l-1.323-0.07c-0.418,0-0.835,0.139-1.114,0.418c-0.627,0.557-1.671,1.601-1.949,2.993
			c-0.487,2.088,0.278,4.594,2.088,7.1s5.291,6.544,11.416,8.284c1.949,0.557,3.481,0.209,4.734-0.557
			c0.975-0.627,1.601-1.601,1.81-2.645l0.209-0.975c0.07-0.278-0.07-0.627-0.348-0.766l-4.386-2.019
			c-0.278-0.139-0.627-0.07-0.835,0.209l-1.74,2.228c-0.139,0.139-0.348,0.209-0.557,0.139c-1.183-0.418-5.151-2.088-7.309-6.265
			c-0.07-0.209-0.07-0.418,0.07-0.557l1.671-1.879c0.139-0.209,0.209-0.487,0.139-0.696l-2.019-4.525
			C17.058,12.742,16.849,12.533,16.57,12.533"/>
	</g>
</g>
</svg>
