<?xml version="1.0" encoding="utf-8"?>
<!-- Generator: Adobe Illustrator 17.0.0, SVG Export Plug-In . SVG Version: 6.00 Build 0)  -->
<!DOCTYPE svg PUBLIC "-//W3C//DTD SVG 1.1//EN" "http://www.w3.org/Graphics/SVG/1.1/DTD/svg11.dtd">
<svg version="1.1" id="Layer_1" xmlns="http://www.w3.org/2000/svg" xmlns:xlink="http://www.w3.org/1999/xlink" x="0px" y="0px"
	 width="126.65px" height="72.169px" viewBox="0 0 126.65 72.169" enable-background="new 0 0 126.65 72.169" xml:space="preserve">
<g>
	<circle fill="#FFFFFF" cx="63.325" cy="19.173" r="19.173"/>
	<g enable-background="new    ">
		<path fill="#00BFFF" d="M61.997,27.687c-0.921-0.126-1.785-0.378-2.592-0.756c-0.807-0.378-1.494-0.846-2.061-1.405l0.897-1.336
			c0.079-0.118,0.183-0.214,0.312-0.29c0.13-0.075,0.266-0.112,0.408-0.112c0.173,0,0.358,0.061,0.555,0.183
			s0.421,0.266,0.673,0.431c0.252,0.165,0.539,0.331,0.862,0.496c0.323,0.165,0.705,0.287,1.146,0.366l0.449-5.29
			c-0.559-0.158-1.112-0.343-1.659-0.557s-1.039-0.496-1.476-0.848c-0.437-0.352-0.789-0.796-1.057-1.333s-0.401-1.208-0.401-2.014
			c0-0.601,0.12-1.187,0.36-1.76s0.588-1.084,1.045-1.535s1.02-0.821,1.689-1.114c0.669-0.292,1.437-0.438,2.302-0.438l0.13-1.504
			c0.016-0.19,0.094-0.362,0.236-0.513c0.143-0.151,0.326-0.227,0.555-0.227h1.074l-0.199,2.322c0.834,0.134,1.555,0.37,2.16,0.708
			s1.133,0.72,1.582,1.145l-0.709,1.075c-0.109,0.158-0.221,0.276-0.33,0.354s-0.244,0.118-0.4,0.118
			c-0.119,0-0.26-0.037-0.42-0.112c-0.162-0.075-0.348-0.166-0.555-0.271c-0.209-0.106-0.439-0.215-0.691-0.325
			c-0.252-0.11-0.531-0.201-0.838-0.271l-0.414,4.892c0.566,0.173,1.129,0.364,1.684,0.573s1.055,0.479,1.5,0.809
			c0.443,0.331,0.805,0.742,1.08,1.234c0.275,0.492,0.412,1.108,0.412,1.848c0,0.732-0.121,1.419-0.365,2.061
			s-0.6,1.208-1.068,1.701s-1.045,0.892-1.73,1.199s-1.469,0.492-2.35,0.555l-0.143,1.736c-0.016,0.181-0.094,0.349-0.235,0.502
			c-0.142,0.154-0.327,0.23-0.555,0.23h-1.074L61.997,27.687z M60.804,14.954c0,0.299,0.051,0.563,0.154,0.792
			c0.102,0.228,0.246,0.431,0.431,0.608s0.403,0.335,0.656,0.473c0.251,0.138,0.527,0.262,0.826,0.372l0.366-4.372
			c-0.433,0.055-0.803,0.147-1.11,0.277c-0.307,0.13-0.559,0.29-0.756,0.479c-0.197,0.189-0.34,0.4-0.431,0.632
			C60.85,14.448,60.804,14.695,60.804,14.954z M66.544,22.68c0-0.299-0.055-0.561-0.16-0.785c-0.105-0.225-0.256-0.423-0.449-0.597
			c-0.193-0.173-0.418-0.322-0.678-0.449c-0.26-0.125-0.543-0.24-0.852-0.342l-0.4,4.794c0.834-0.11,1.465-0.392,1.895-0.844
			S66.544,23.412,66.544,22.68z"/>
	</g>
</g>
<g>
	<path fill="#FFFFFF" d="M14.86,68.264c0.701,0,1.322-0.06,1.862-0.18s1.051-0.28,1.532-0.48v-3.319h-2.163
		c-0.32,0-0.571-0.085-0.751-0.256c-0.18-0.17-0.27-0.385-0.27-0.646v-2.794h7.78v9.237c-0.561,0.41-1.144,0.764-1.75,1.059
		c-0.606,0.296-1.251,0.538-1.938,0.729c-0.686,0.19-1.417,0.33-2.192,0.421c-0.776,0.09-1.61,0.135-2.501,0.135
		c-1.602,0-3.084-0.282-4.446-0.849c-1.362-0.565-2.541-1.347-3.537-2.343C5.49,67.982,4.709,66.8,4.144,65.433
		c-0.566-1.366-0.849-2.851-0.849-4.453c0-1.632,0.271-3.131,0.811-4.498c0.541-1.366,1.314-2.546,2.321-3.537
		c1.006-0.991,2.223-1.762,3.649-2.312s3.021-0.826,4.784-0.826c0.911,0,1.767,0.075,2.568,0.226
		c0.801,0.149,1.54,0.355,2.215,0.615c0.676,0.261,1.294,0.571,1.854,0.932c0.561,0.36,1.062,0.751,1.502,1.171l-1.472,2.238
		c-0.14,0.21-0.308,0.375-0.503,0.495c-0.195,0.12-0.408,0.181-0.639,0.181c-0.3,0-0.611-0.1-0.931-0.301
		c-0.4-0.24-0.778-0.447-1.134-0.623c-0.355-0.175-0.719-0.317-1.089-0.428c-0.371-0.11-0.761-0.19-1.171-0.24
		c-0.411-0.051-0.871-0.075-1.382-0.075c-0.952,0-1.808,0.168-2.568,0.503c-0.761,0.336-1.41,0.809-1.945,1.419
		c-0.536,0.611-0.949,1.345-1.239,2.2c-0.291,0.856-0.436,1.811-0.436,2.861c0,1.162,0.16,2.193,0.48,3.094
		c0.32,0.901,0.764,1.663,1.329,2.283c0.566,0.621,1.237,1.094,2.013,1.42C13.09,68.102,13.938,68.264,14.86,68.264z"/>
	<path fill="#FFFFFF" d="M32.612,56.114c1.031,0,1.975,0.16,2.831,0.48c0.856,0.321,1.592,0.786,2.208,1.397
		c0.616,0.61,1.096,1.359,1.442,2.245c0.345,0.886,0.518,1.89,0.518,3.012c0,0.351-0.015,0.636-0.045,0.855
		c-0.03,0.221-0.085,0.396-0.166,0.526c-0.08,0.13-0.188,0.22-0.323,0.27c-0.135,0.051-0.308,0.075-0.518,0.075h-8.981
		c0.15,1.302,0.545,2.245,1.187,2.831c0.641,0.586,1.467,0.879,2.478,0.879c0.541,0,1.006-0.065,1.397-0.195
		c0.39-0.13,0.738-0.275,1.043-0.436c0.306-0.16,0.586-0.306,0.841-0.436s0.523-0.195,0.804-0.195c0.37,0,0.65,0.136,0.841,0.405
		l1.352,1.668c-0.48,0.551-0.999,0.998-1.554,1.344s-1.126,0.616-1.712,0.811c-0.585,0.195-1.171,0.331-1.757,0.406
		c-0.585,0.075-1.144,0.112-1.674,0.112c-1.092,0-2.115-0.178-3.071-0.533c-0.957-0.355-1.792-0.884-2.508-1.584
		c-0.716-0.701-1.282-1.572-1.697-2.613c-0.416-1.042-0.624-2.253-0.624-3.635c0-1.042,0.178-2.028,0.533-2.959
		c0.355-0.932,0.866-1.747,1.532-2.448c0.666-0.701,1.472-1.257,2.418-1.667S31.42,56.114,32.612,56.114z M32.702,59.329
		c-0.892,0-1.587,0.253-2.088,0.758c-0.5,0.506-0.831,1.234-0.991,2.186h5.812c0-0.37-0.048-0.73-0.143-1.081
		c-0.095-0.351-0.25-0.664-0.466-0.939s-0.498-0.498-0.849-0.668S33.203,59.329,32.702,59.329z"/>
	<path fill="#FFFFFF" d="M47.751,72.169c-0.741,0-1.394-0.107-1.96-0.323c-0.565-0.215-1.042-0.521-1.427-0.916
		s-0.678-0.873-0.878-1.434c-0.201-0.562-0.3-1.187-0.3-1.878v-8.05h-1.322c-0.24,0-0.446-0.078-0.616-0.233
		c-0.17-0.155-0.255-0.383-0.255-0.684v-1.816l2.478-0.481l0.916-3.8c0.12-0.48,0.46-0.721,1.021-0.721h2.433v4.551h3.785v3.185
		h-3.785v7.734c0,0.36,0.087,0.658,0.263,0.894s0.428,0.354,0.759,0.354c0.17,0,0.312-0.018,0.428-0.053s0.215-0.075,0.3-0.12
		s0.166-0.085,0.241-0.12c0.075-0.035,0.163-0.053,0.263-0.053c0.14,0,0.253,0.032,0.338,0.098s0.173,0.168,0.263,0.308l1.412,2.208
		c-0.601,0.45-1.277,0.788-2.028,1.014S48.552,72.169,47.751,72.169z"/>
	<path fill="#FFFFFF" d="M74.8,66.267c0.12,0,0.24,0.022,0.36,0.067s0.235,0.123,0.346,0.232l2.013,2.118
		c-0.881,1.151-1.985,2.021-3.312,2.605c-1.327,0.586-2.896,0.879-4.709,0.879c-1.662,0-3.151-0.282-4.468-0.849
		c-1.317-0.565-2.433-1.347-3.35-2.343c-0.916-0.996-1.62-2.178-2.11-3.545c-0.491-1.366-0.736-2.851-0.736-4.453
		c0-1.632,0.28-3.131,0.841-4.498c0.561-1.366,1.344-2.546,2.351-3.537s2.21-1.762,3.612-2.312c1.401-0.551,2.948-0.826,4.641-0.826
		c0.821,0,1.595,0.072,2.32,0.218s1.404,0.346,2.035,0.601c0.631,0.256,1.211,0.561,1.742,0.916c0.53,0.355,1.001,0.749,1.412,1.18
		l-1.713,2.298c-0.11,0.14-0.24,0.268-0.39,0.383c-0.15,0.115-0.361,0.173-0.631,0.173c-0.181,0-0.351-0.04-0.511-0.12
		s-0.331-0.178-0.511-0.293c-0.181-0.115-0.378-0.24-0.594-0.376c-0.215-0.135-0.471-0.26-0.766-0.375
		c-0.296-0.115-0.641-0.213-1.036-0.293s-0.859-0.12-1.39-0.12c-0.921,0-1.763,0.163-2.523,0.488s-1.414,0.791-1.96,1.396
		s-0.972,1.339-1.276,2.2c-0.306,0.861-0.458,1.827-0.458,2.898c0,1.122,0.152,2.118,0.458,2.989c0.305,0.871,0.721,1.604,1.247,2.2
		c0.525,0.596,1.139,1.049,1.84,1.359c0.7,0.311,1.451,0.466,2.253,0.466c0.46,0,0.881-0.023,1.261-0.068
		c0.381-0.045,0.733-0.122,1.06-0.232c0.325-0.11,0.636-0.253,0.931-0.428c0.296-0.176,0.594-0.394,0.894-0.653
		c0.12-0.101,0.25-0.183,0.391-0.248S74.649,66.267,74.8,66.267z"/>
	<path fill="#FFFFFF" d="M90.585,71.929c-0.44,0-0.773-0.061-0.998-0.181c-0.226-0.12-0.413-0.37-0.563-0.751l-0.33-0.855
		c-0.391,0.33-0.767,0.621-1.127,0.871s-0.733,0.463-1.119,0.638c-0.386,0.176-0.796,0.306-1.231,0.391s-0.919,0.128-1.449,0.128
		c-0.711,0-1.356-0.093-1.938-0.278c-0.581-0.187-1.074-0.46-1.479-0.821c-0.405-0.362-0.719-0.812-0.938-1.349
		c-0.221-0.538-0.33-1.158-0.33-1.861c0-0.552,0.14-1.12,0.42-1.702c0.28-0.583,0.767-1.112,1.457-1.59s1.622-0.876,2.794-1.198
		c1.171-0.321,2.647-0.482,4.431-0.482v-0.666c0-0.92-0.188-1.585-0.563-1.994c-0.376-0.409-0.909-0.613-1.6-0.613
		c-0.551,0-1.001,0.06-1.352,0.18s-0.664,0.256-0.938,0.406c-0.276,0.149-0.544,0.285-0.804,0.405
		c-0.261,0.12-0.571,0.18-0.932,0.18c-0.32,0-0.593-0.077-0.818-0.232s-0.403-0.348-0.533-0.578l-0.841-1.457
		c0.94-0.831,1.984-1.449,3.131-1.854c1.146-0.406,2.376-0.608,3.688-0.608c0.941,0,1.79,0.152,2.546,0.458s1.396,0.73,1.923,1.276
		c0.525,0.546,0.928,1.194,1.209,1.945c0.28,0.751,0.42,1.572,0.42,2.463v9.732H90.585z M85.238,69.09
		c0.601,0,1.127-0.104,1.577-0.315c0.45-0.21,0.906-0.55,1.367-1.021v-2.132c-0.932,0-1.697,0.061-2.298,0.182
		c-0.602,0.121-1.077,0.272-1.428,0.454c-0.351,0.183-0.593,0.389-0.728,0.621c-0.136,0.232-0.203,0.485-0.203,0.758
		c0,0.535,0.145,0.911,0.436,1.129C84.252,68.982,84.678,69.09,85.238,69.09z"/>
	<path fill="#FFFFFF" d="M105.544,59.764c-0.12,0.189-0.248,0.325-0.383,0.405s-0.308,0.12-0.519,0.12
		c-0.22,0-0.44-0.048-0.66-0.143c-0.221-0.096-0.458-0.198-0.714-0.309c-0.255-0.109-0.543-0.212-0.863-0.308
		c-0.32-0.095-0.687-0.143-1.097-0.143c-0.591,0-1.044,0.112-1.359,0.338s-0.473,0.538-0.473,0.938c0,0.291,0.103,0.531,0.308,0.722
		c0.205,0.189,0.479,0.357,0.818,0.503c0.341,0.145,0.727,0.283,1.157,0.413c0.43,0.13,0.871,0.275,1.321,0.436
		s0.891,0.348,1.321,0.562c0.431,0.216,0.816,0.481,1.157,0.797c0.34,0.315,0.613,0.698,0.818,1.148s0.308,0.991,0.308,1.622
		c0,0.771-0.141,1.482-0.421,2.133c-0.28,0.651-0.698,1.212-1.254,1.682c-0.556,0.472-1.241,0.837-2.058,1.097
		c-0.816,0.261-1.755,0.391-2.815,0.391c-0.531,0-1.062-0.05-1.593-0.15c-0.53-0.1-1.044-0.235-1.539-0.405
		c-0.496-0.17-0.954-0.373-1.374-0.608c-0.421-0.235-0.781-0.488-1.082-0.759l1.082-1.712c0.13-0.2,0.285-0.357,0.465-0.473
		c0.181-0.115,0.416-0.173,0.706-0.173c0.271,0,0.514,0.06,0.729,0.18c0.216,0.12,0.448,0.251,0.698,0.391
		c0.251,0.141,0.543,0.271,0.879,0.391c0.335,0.12,0.759,0.181,1.27,0.181c0.36,0,0.665-0.038,0.916-0.113
		c0.25-0.075,0.45-0.178,0.601-0.308s0.26-0.275,0.33-0.436s0.105-0.325,0.105-0.495c0-0.311-0.105-0.566-0.315-0.767
		s-0.485-0.373-0.826-0.518c-0.341-0.146-0.729-0.28-1.164-0.406c-0.436-0.125-0.878-0.268-1.329-0.428
		c-0.45-0.16-0.894-0.353-1.329-0.578s-0.823-0.511-1.164-0.856c-0.341-0.345-0.615-0.768-0.826-1.269
		c-0.21-0.501-0.315-1.106-0.315-1.817c0-0.661,0.128-1.289,0.383-1.885c0.256-0.596,0.639-1.119,1.149-1.57
		c0.511-0.45,1.151-0.808,1.923-1.073c0.771-0.266,1.672-0.398,2.703-0.398c0.561,0,1.104,0.051,1.63,0.15
		c0.525,0.101,1.019,0.24,1.479,0.421c0.461,0.18,0.882,0.393,1.262,0.638c0.381,0.246,0.716,0.514,1.007,0.804L105.544,59.764z"/>
	<path fill="#FFFFFF" d="M109.238,71.929V49.446h4.655v8.275c0.561-0.48,1.169-0.868,1.825-1.164
		c0.655-0.295,1.439-0.443,2.351-0.443c0.851,0,1.604,0.148,2.26,0.443c0.656,0.296,1.209,0.706,1.66,1.231
		c0.45,0.525,0.791,1.151,1.021,1.878c0.229,0.726,0.345,1.514,0.345,2.365v9.897H118.7v-9.897c0-0.761-0.176-1.354-0.526-1.78
		c-0.351-0.425-0.866-0.638-1.547-0.638c-0.511,0-0.991,0.11-1.441,0.33c-0.451,0.221-0.881,0.516-1.292,0.886v11.1H109.238z"/>
</g>
</svg>
