<?xml version="1.0" encoding="utf-8"?>
<!-- Generator: Adobe Illustrator 17.0.0, SVG Export Plug-In . SVG Version: 6.00 Build 0)  -->
<!DOCTYPE svg PUBLIC "-//W3C//DTD SVG 1.1//EN" "http://www.w3.org/Graphics/SVG/1.1/DTD/svg11.dtd">
<svg version="1.1" id="Layer_1" xmlns="http://www.w3.org/2000/svg" xmlns:xlink="http://www.w3.org/1999/xlink" x="0px" y="0px"
	 width="129px" height="34.69px" viewBox="0 0 129 34.69" enable-background="new 0 0 129 34.69" xml:space="preserve">
<g>
	<path d="M44.09,23.384c0.682,0,1.276-0.062,1.782-0.186c0.506-0.123,0.988-0.294,1.445-0.512V19.73h-2.035
		c-0.195,0-0.349-0.055-0.461-0.163s-0.169-0.242-0.169-0.4v-1.709h5.409v6.579c-0.412,0.3-0.842,0.56-1.288,0.781
		c-0.446,0.221-0.922,0.403-1.428,0.546c-0.506,0.142-1.048,0.249-1.625,0.32c-0.577,0.072-1.2,0.107-1.867,0.107
		c-1.185,0-2.275-0.206-3.272-0.619c-0.997-0.412-1.859-0.986-2.587-1.72c-0.727-0.735-1.295-1.612-1.704-2.631
		c-0.409-1.02-0.613-2.133-0.613-3.341c0-1.222,0.199-2.343,0.596-3.362c0.397-1.02,0.961-1.897,1.692-2.631
		c0.731-0.735,1.618-1.305,2.659-1.71c1.042-0.405,2.212-0.607,3.509-0.607c1.327,0,2.476,0.197,3.447,0.591
		s1.794,0.905,2.468,1.535l-0.877,1.372c-0.173,0.277-0.401,0.416-0.686,0.416c-0.18,0-0.364-0.06-0.551-0.18
		c-0.24-0.142-0.485-0.285-0.736-0.427s-0.529-0.266-0.832-0.371c-0.304-0.105-0.645-0.191-1.023-0.259
		c-0.379-0.067-0.815-0.101-1.31-0.101c-0.802,0-1.528,0.135-2.176,0.405c-0.648,0.27-1.201,0.656-1.659,1.158
		c-0.457,0.502-0.809,1.106-1.057,1.811c-0.247,0.705-0.371,1.492-0.371,2.361c0,0.937,0.131,1.771,0.394,2.502
		c0.262,0.731,0.63,1.348,1.102,1.85c0.472,0.502,1.034,0.886,1.687,1.153C42.605,23.252,43.318,23.384,44.09,23.384z"/>
	<path d="M57.494,13.893c0.727,0,1.396,0.116,2.007,0.349c0.611,0.232,1.138,0.572,1.58,1.018c0.442,0.446,0.787,0.993,1.034,1.642
		c0.248,0.649,0.371,1.389,0.371,2.222c0,0.21-0.01,0.384-0.028,0.523c-0.019,0.139-0.053,0.247-0.101,0.326
		c-0.049,0.079-0.114,0.135-0.197,0.169c-0.083,0.034-0.187,0.051-0.315,0.051h-7.13c0.083,1.185,0.401,2.054,0.956,2.609
		c0.555,0.555,1.289,0.832,2.204,0.832c0.45,0,0.838-0.052,1.164-0.158c0.326-0.105,0.611-0.221,0.855-0.349
		c0.243-0.128,0.457-0.243,0.641-0.349c0.184-0.105,0.362-0.157,0.534-0.157c0.113,0,0.21,0.023,0.293,0.067
		c0.082,0.045,0.153,0.109,0.214,0.191l0.809,1.012c-0.307,0.359-0.652,0.662-1.034,0.905c-0.382,0.244-0.781,0.439-1.198,0.585
		c-0.416,0.146-0.84,0.249-1.271,0.309c-0.431,0.06-0.849,0.09-1.254,0.09c-0.802,0-1.548-0.133-2.238-0.399
		c-0.69-0.266-1.29-0.66-1.8-1.181c-0.51-0.521-0.911-1.165-1.203-1.934c-0.292-0.768-0.439-1.659-0.439-2.671
		c0-0.786,0.127-1.528,0.382-2.221c0.255-0.694,0.62-1.297,1.096-1.811c0.476-0.514,1.057-0.92,1.743-1.22
		C55.858,14.043,56.632,13.893,57.494,13.893z M57.55,15.883c-0.809,0-1.443,0.229-1.9,0.686c-0.457,0.457-0.75,1.106-0.877,1.946
		h5.218c0-0.36-0.049-0.7-0.146-1.018c-0.097-0.319-0.247-0.598-0.45-0.838c-0.202-0.24-0.457-0.429-0.764-0.568
		C58.323,15.952,57.963,15.883,57.55,15.883z"/>
	<path d="M68.537,25.791c-0.997,0-1.766-0.283-2.305-0.849c-0.54-0.566-0.809-1.348-0.809-2.345v-6.444h-1.17
		c-0.15,0-0.279-0.049-0.388-0.146c-0.109-0.097-0.163-0.244-0.163-0.439v-1.102l1.856-0.304l0.585-3.149
		c0.03-0.15,0.1-0.266,0.208-0.349c0.108-0.082,0.245-0.124,0.41-0.124h1.44v3.632h3.036v1.979h-3.036v6.253
		c0,0.36,0.09,0.641,0.27,0.844s0.419,0.303,0.72,0.303c0.172,0,0.317-0.021,0.433-0.062s0.218-0.084,0.303-0.129
		c0.086-0.045,0.164-0.089,0.231-0.13c0.067-0.041,0.135-0.062,0.202-0.062c0.083,0,0.15,0.021,0.203,0.062s0.108,0.103,0.169,0.186
		l0.832,1.35c-0.405,0.337-0.87,0.592-1.394,0.764C69.643,25.704,69.099,25.791,68.537,25.791z"/>
	<path d="M89.127,21.776c0.165,0,0.307,0.064,0.427,0.191l1.192,1.294c-0.66,0.817-1.472,1.443-2.435,1.878
		c-0.963,0.435-2.12,0.653-3.469,0.653c-1.207,0-2.293-0.206-3.256-0.619c-0.964-0.412-1.786-0.986-2.468-1.72
		c-0.682-0.735-1.205-1.612-1.569-2.631c-0.364-1.02-0.546-2.133-0.546-3.341c0-1.222,0.203-2.341,0.607-3.357
		c0.405-1.016,0.975-1.891,1.71-2.626c0.735-0.734,1.613-1.306,2.637-1.715c1.023-0.408,2.153-0.613,3.39-0.613
		c1.207,0,2.262,0.193,3.166,0.579s1.677,0.898,2.322,1.535l-1.012,1.406c-0.06,0.09-0.137,0.169-0.23,0.236
		c-0.094,0.067-0.223,0.101-0.388,0.101c-0.172,0-0.349-0.067-0.529-0.202s-0.409-0.281-0.686-0.439
		c-0.278-0.157-0.628-0.304-1.051-0.439c-0.424-0.135-0.961-0.202-1.614-0.202c-0.764,0-1.467,0.133-2.109,0.399
		c-0.64,0.266-1.192,0.647-1.653,1.141c-0.461,0.495-0.82,1.096-1.08,1.805c-0.259,0.709-0.388,1.505-0.388,2.39
		c0,0.915,0.129,1.729,0.388,2.441c0.259,0.712,0.609,1.312,1.051,1.799c0.443,0.487,0.964,0.86,1.564,1.119
		c0.599,0.259,1.244,0.388,1.934,0.388c0.412,0,0.785-0.023,1.119-0.067c0.334-0.045,0.641-0.116,0.922-0.214
		c0.281-0.097,0.548-0.222,0.798-0.376c0.252-0.154,0.501-0.343,0.748-0.568c0.074-0.067,0.154-0.122,0.236-0.163
		S89.029,21.776,89.127,21.776z"/>
	<path d="M101.912,25.611h-1.248c-0.262,0-0.468-0.04-0.619-0.118c-0.149-0.079-0.262-0.237-0.337-0.478l-0.247-0.821
		c-0.293,0.263-0.579,0.493-0.86,0.692c-0.281,0.199-0.572,0.366-0.871,0.501c-0.3,0.135-0.619,0.236-0.956,0.303
		s-0.713,0.101-1.125,0.101c-0.487,0-0.937-0.066-1.349-0.198c-0.412-0.131-0.767-0.329-1.063-0.592
		c-0.296-0.263-0.527-0.59-0.692-0.981c-0.165-0.391-0.247-0.847-0.247-1.365c0-0.436,0.114-0.867,0.343-1.292
		c0.228-0.424,0.609-0.808,1.141-1.151c0.532-0.342,1.241-0.626,2.126-0.852c0.884-0.226,1.982-0.339,3.295-0.339v-0.68
		c0-0.778-0.163-1.354-0.489-1.728c-0.327-0.374-0.801-0.561-1.423-0.561c-0.45,0-0.825,0.052-1.124,0.157
		c-0.3,0.105-0.561,0.223-0.782,0.354c-0.221,0.131-0.425,0.249-0.613,0.354c-0.187,0.105-0.393,0.157-0.618,0.157
		c-0.188,0-0.349-0.049-0.484-0.146c-0.135-0.097-0.244-0.218-0.326-0.36l-0.507-0.888c1.327-1.214,2.928-1.822,4.802-1.822
		c0.674,0,1.276,0.111,1.805,0.332c0.529,0.221,0.976,0.529,1.344,0.922c0.367,0.394,0.647,0.864,0.837,1.411
		c0.191,0.547,0.287,1.147,0.287,1.8V25.611z M96.515,23.879c0.285,0,0.547-0.026,0.787-0.078c0.239-0.052,0.466-0.129,0.68-0.232
		c0.213-0.103,0.419-0.23,0.619-0.382c0.198-0.151,0.399-0.33,0.602-0.537v-1.931c-0.81,0-1.486,0.051-2.03,0.152
		c-0.543,0.102-0.98,0.232-1.31,0.391c-0.33,0.159-0.564,0.344-0.703,0.555c-0.139,0.212-0.208,0.442-0.208,0.691
		c0,0.491,0.145,0.842,0.433,1.054C95.673,23.774,96.05,23.879,96.515,23.879z"/>
	<path d="M111.494,16.322c-0.075,0.12-0.154,0.204-0.236,0.253c-0.083,0.049-0.188,0.073-0.315,0.073
		c-0.135,0-0.279-0.038-0.433-0.112c-0.154-0.075-0.332-0.159-0.534-0.253c-0.202-0.094-0.433-0.178-0.692-0.253
		c-0.259-0.075-0.564-0.112-0.916-0.112c-0.548,0-0.978,0.116-1.294,0.349c-0.315,0.232-0.472,0.536-0.472,0.911
		c0,0.247,0.08,0.456,0.242,0.624c0.161,0.169,0.375,0.317,0.641,0.445c0.266,0.128,0.568,0.242,0.905,0.343
		c0.338,0.101,0.682,0.212,1.035,0.332c0.352,0.12,0.697,0.257,1.034,0.41c0.337,0.154,0.639,0.349,0.905,0.585
		c0.266,0.236,0.48,0.519,0.64,0.849c0.162,0.33,0.242,0.728,0.242,1.192c0,0.555-0.101,1.066-0.304,1.535
		c-0.203,0.469-0.499,0.874-0.888,1.214c-0.39,0.342-0.871,0.607-1.445,0.798c-0.574,0.191-1.231,0.287-1.974,0.287
		c-0.397,0-0.786-0.035-1.164-0.107c-0.378-0.072-0.742-0.17-1.09-0.298c-0.349-0.128-0.671-0.278-0.967-0.45
		c-0.296-0.173-0.557-0.36-0.781-0.563l0.64-1.057c0.083-0.128,0.18-0.225,0.293-0.293c0.113-0.067,0.255-0.101,0.427-0.101
		c0.172,0,0.336,0.049,0.49,0.146c0.153,0.098,0.332,0.203,0.534,0.315c0.203,0.113,0.441,0.218,0.714,0.315
		c0.273,0.097,0.621,0.146,1.041,0.146c0.329,0,0.613-0.039,0.849-0.118c0.236-0.079,0.431-0.181,0.585-0.309
		s0.266-0.276,0.337-0.444c0.072-0.169,0.107-0.343,0.107-0.523c0-0.27-0.081-0.491-0.242-0.663
		c-0.162-0.173-0.375-0.322-0.641-0.45c-0.266-0.128-0.57-0.242-0.91-0.343c-0.341-0.101-0.69-0.212-1.046-0.332
		c-0.356-0.12-0.704-0.26-1.046-0.422c-0.341-0.161-0.645-0.366-0.91-0.613c-0.266-0.247-0.48-0.551-0.641-0.911
		c-0.162-0.36-0.242-0.794-0.242-1.304c0-0.473,0.094-0.922,0.281-1.35c0.187-0.427,0.463-0.8,0.826-1.119
		c0.363-0.318,0.817-0.574,1.361-0.765c0.543-0.191,1.171-0.287,1.883-0.287c0.795,0,1.518,0.131,2.171,0.394
		c0.652,0.263,1.195,0.607,1.63,1.034L111.494,16.322z"/>
	<path d="M114.474,25.611V8.9h2.777v6.421c0.45-0.427,0.945-0.772,1.485-1.034c0.539-0.263,1.173-0.394,1.9-0.394
		c0.63,0,1.188,0.107,1.676,0.32c0.487,0.214,0.894,0.514,1.22,0.9s0.573,0.847,0.743,1.383c0.169,0.536,0.253,1.127,0.253,1.771
		v7.344h-2.778v-7.344c0-0.705-0.163-1.25-0.489-1.636c-0.326-0.386-0.815-0.579-1.467-0.579c-0.48,0-0.93,0.109-1.35,0.326
		c-0.42,0.218-0.818,0.514-1.192,0.888v8.344H114.474z"/>
</g>
<g>
	<circle fill="none" stroke="#00BFFF" stroke-width="3" stroke-miterlimit="10" cx="17.213" cy="17.345" r="12.69"/>
	<text transform="matrix(1 0 0 1 12.8643 22.4517)" fill="#00BFFF" font-family="'Lato-Bold'" font-size="14.997">$</text>
</g>
</svg>
