<?xml version="1.0" encoding="utf-8"?>
<!-- Generator: Adobe Illustrator 17.0.0, SVG Export Plug-In . SVG Version: 6.00 Build 0)  -->
<!DOCTYPE svg PUBLIC "-//W3C//DTD SVG 1.1//EN" "http://www.w3.org/Graphics/SVG/1.1/DTD/svg11.dtd">
<svg version="1.1" id="Layer_1" xmlns="http://www.w3.org/2000/svg" xmlns:xlink="http://www.w3.org/1999/xlink" x="0px" y="0px"
	 width="157.838px" height="36.065px" viewBox="0 0 157.838 36.065" enable-background="new 0 0 157.838 36.065"
	 xml:space="preserve">
<g>
	<g>
		<path fill="#FFFFFF" d="M53.047,25.9c0.888,0,1.663-0.08,2.322-0.242c0.66-0.161,1.287-0.383,1.883-0.666v-3.853H54.6
			c-0.254,0-0.455-0.071-0.601-0.212c-0.146-0.141-0.22-0.315-0.22-0.521v-2.227h7.047v8.571c-0.537,0.39-1.097,0.73-1.678,1.018
			s-1.201,0.525-1.86,0.711c-0.66,0.186-1.365,0.324-2.117,0.417c-0.752,0.093-1.563,0.139-2.432,0.139
			c-1.543,0-2.964-0.269-4.263-0.806c-1.299-0.537-2.422-1.284-3.37-2.241c-0.947-0.957-1.687-2.1-2.219-3.428
			c-0.533-1.328-0.798-2.779-0.798-4.352c0-1.592,0.259-3.052,0.777-4.38c0.517-1.328,1.253-2.471,2.205-3.428
			c0.952-0.957,2.107-1.7,3.465-2.227c1.358-0.527,2.881-0.791,4.571-0.791c1.728,0,3.225,0.257,4.49,0.769
			c1.265,0.513,2.337,1.179,3.216,2l-1.143,1.787c-0.225,0.361-0.522,0.542-0.893,0.542c-0.234,0-0.474-0.078-0.718-0.234
			c-0.312-0.185-0.632-0.371-0.959-0.557c-0.327-0.186-0.689-0.347-1.084-0.484c-0.396-0.137-0.84-0.249-1.333-0.337
			c-0.493-0.088-1.062-0.132-1.707-0.132c-1.045,0-1.99,0.176-2.835,0.527c-0.845,0.352-1.565,0.855-2.161,1.509
			s-1.055,1.441-1.377,2.359c-0.322,0.918-0.483,1.943-0.483,3.076c0,1.221,0.171,2.308,0.513,3.26
			c0.342,0.953,0.82,1.756,1.436,2.41c0.615,0.654,1.348,1.155,2.197,1.502C51.112,25.727,52.041,25.9,53.047,25.9z"/>
		<path fill="#FFFFFF" d="M70.509,13.535c0.947,0,1.819,0.151,2.615,0.454c0.796,0.303,1.482,0.745,2.058,1.326
			c0.576,0.581,1.025,1.294,1.348,2.139c0.323,0.845,0.484,1.81,0.484,2.894c0,0.273-0.012,0.5-0.036,0.681
			c-0.024,0.181-0.069,0.322-0.132,0.425c-0.064,0.102-0.149,0.176-0.257,0.22c-0.108,0.044-0.244,0.066-0.41,0.066h-9.288
			c0.108,1.543,0.522,2.676,1.245,3.399c0.723,0.723,1.68,1.085,2.872,1.085c0.586,0,1.091-0.068,1.516-0.206
			c0.425-0.137,0.796-0.288,1.114-0.454c0.317-0.166,0.596-0.317,0.835-0.454c0.24-0.137,0.471-0.205,0.696-0.205
			c0.147,0,0.273,0.03,0.381,0.088c0.107,0.059,0.2,0.142,0.278,0.249l1.055,1.319c-0.401,0.468-0.85,0.862-1.348,1.179
			c-0.498,0.318-1.018,0.571-1.56,0.762c-0.542,0.19-1.094,0.324-1.655,0.402c-0.562,0.078-1.106,0.117-1.633,0.117
			c-1.045,0-2.017-0.174-2.915-0.52c-0.899-0.347-1.68-0.859-2.344-1.539c-0.664-0.678-1.187-1.518-1.567-2.52
			c-0.381-1.001-0.571-2.161-0.571-3.48c0-1.025,0.166-1.99,0.498-2.893c0.332-0.904,0.808-1.69,1.428-2.359
			c0.62-0.669,1.377-1.199,2.271-1.589C68.378,13.73,69.386,13.535,70.509,13.535z M70.582,16.128c-1.055,0-1.88,0.298-2.476,0.894
			c-0.596,0.596-0.977,1.441-1.143,2.535h6.798c0-0.469-0.064-0.911-0.191-1.326c-0.127-0.415-0.322-0.779-0.586-1.091
			c-0.264-0.312-0.596-0.559-0.996-0.74C71.588,16.218,71.119,16.128,70.582,16.128z"/>
		<path fill="#FFFFFF" d="M84.895,29.035c-1.299,0-2.3-0.368-3.003-1.106c-0.703-0.737-1.055-1.756-1.055-3.055V16.48h-1.524
			c-0.195,0-0.364-0.063-0.505-0.19c-0.142-0.127-0.212-0.318-0.212-0.571v-1.436l2.417-0.396l0.761-4.102
			c0.039-0.195,0.13-0.347,0.271-0.454c0.141-0.107,0.32-0.161,0.534-0.161h1.876v4.732h3.955v2.578h-3.955v8.146
			c0,0.469,0.117,0.835,0.352,1.099c0.234,0.264,0.546,0.395,0.938,0.395c0.224,0,0.413-0.027,0.564-0.08s0.283-0.11,0.395-0.168
			c0.113-0.059,0.213-0.115,0.301-0.169s0.175-0.08,0.263-0.08c0.108,0,0.196,0.027,0.264,0.08s0.141,0.135,0.22,0.242l1.085,1.758
			c-0.528,0.439-1.133,0.772-1.817,0.996C86.336,28.923,85.628,29.035,84.895,29.035z"/>
		<path fill="#FFFFFF" d="M111.719,23.806c0.215,0,0.401,0.083,0.557,0.248l1.553,1.685c-0.86,1.064-1.917,1.88-3.172,2.446
			c-1.254,0.567-2.762,0.85-4.519,0.85c-1.573,0-2.987-0.269-4.241-0.806c-1.255-0.537-2.327-1.284-3.216-2.241
			c-0.889-0.957-1.57-2.1-2.044-3.428c-0.474-1.328-0.711-2.779-0.711-4.352c0-1.592,0.264-3.05,0.791-4.373
			c0.528-1.324,1.27-2.464,2.227-3.421c0.957-0.957,2.102-1.702,3.435-2.234c1.333-0.532,2.805-0.798,4.417-0.798
			c1.573,0,2.947,0.252,4.124,0.755c1.177,0.503,2.185,1.17,3.026,2l-1.319,1.831c-0.078,0.117-0.178,0.22-0.3,0.308
			c-0.123,0.088-0.291,0.132-0.506,0.132c-0.224,0-0.454-0.088-0.689-0.264c-0.234-0.176-0.533-0.366-0.893-0.571
			c-0.362-0.205-0.818-0.396-1.37-0.571c-0.552-0.176-1.253-0.264-2.103-0.264c-0.996,0-1.912,0.174-2.747,0.52
			c-0.834,0.347-1.553,0.842-2.153,1.487c-0.601,0.644-1.069,1.428-1.407,2.351c-0.337,0.923-0.505,1.961-0.505,3.113
			c0,1.192,0.168,2.252,0.505,3.18c0.338,0.928,0.794,1.709,1.37,2.344c0.577,0.635,1.255,1.121,2.037,1.458
			c0.781,0.337,1.621,0.505,2.52,0.505c0.536,0,1.023-0.03,1.457-0.088c0.435-0.059,0.835-0.151,1.201-0.279
			c0.366-0.126,0.713-0.29,1.04-0.49c0.328-0.2,0.653-0.447,0.975-0.74c0.097-0.088,0.2-0.159,0.307-0.212
			C111.474,23.832,111.592,23.806,111.719,23.806z"/>
		<path fill="#FFFFFF" d="M128.376,28.801h-1.626c-0.342,0-0.61-0.052-0.806-0.154c-0.195-0.102-0.342-0.309-0.439-0.622
			l-0.322-1.07c-0.381,0.342-0.754,0.642-1.121,0.901c-0.366,0.259-0.745,0.476-1.135,0.653c-0.391,0.175-0.806,0.307-1.245,0.395
			c-0.439,0.088-0.929,0.132-1.466,0.132c-0.634,0-1.22-0.086-1.757-0.258c-0.537-0.171-0.999-0.428-1.385-0.772
			c-0.386-0.342-0.687-0.769-0.901-1.278c-0.215-0.51-0.322-1.103-0.322-1.779c0-0.569,0.149-1.13,0.447-1.684
			c0.297-0.553,0.793-1.053,1.487-1.499c0.693-0.446,1.616-0.816,2.769-1.109c1.152-0.294,2.583-0.441,4.292-0.441V19.33
			c0-1.013-0.212-1.764-0.637-2.251c-0.426-0.487-1.043-0.731-1.853-0.731c-0.586,0-1.074,0.068-1.465,0.205
			c-0.391,0.137-0.731,0.291-1.019,0.462c-0.288,0.171-0.554,0.325-0.798,0.462c-0.244,0.137-0.512,0.205-0.805,0.205
			c-0.245,0-0.455-0.063-0.63-0.19c-0.175-0.127-0.318-0.283-0.425-0.469l-0.66-1.157c1.729-1.582,3.814-2.373,6.256-2.373
			c0.879,0,1.662,0.144,2.351,0.432c0.689,0.288,1.272,0.689,1.751,1.201c0.478,0.513,0.843,1.126,1.091,1.839
			c0.249,0.713,0.374,1.494,0.374,2.344V28.801z M121.344,26.545c0.371,0,0.713-0.034,1.025-0.102
			c0.312-0.067,0.607-0.168,0.886-0.303c0.278-0.135,0.546-0.3,0.806-0.498c0.258-0.197,0.52-0.43,0.784-0.7v-2.515
			c-1.055,0-1.937,0.066-2.644,0.198c-0.708,0.133-1.277,0.303-1.707,0.51c-0.43,0.207-0.735,0.448-0.916,0.723
			c-0.181,0.276-0.271,0.576-0.271,0.9c0,0.64,0.188,1.097,0.564,1.373C120.248,26.408,120.738,26.545,121.344,26.545z"/>
		<path fill="#FFFFFF" d="M140.858,16.699c-0.098,0.156-0.2,0.266-0.307,0.33c-0.108,0.064-0.245,0.095-0.411,0.095
			c-0.175,0-0.364-0.049-0.564-0.146c-0.2-0.098-0.432-0.208-0.696-0.33c-0.263-0.122-0.564-0.232-0.901-0.33
			c-0.337-0.097-0.735-0.146-1.193-0.146c-0.713,0-1.275,0.151-1.685,0.454c-0.41,0.303-0.615,0.698-0.615,1.187
			c0,0.322,0.104,0.594,0.315,0.813c0.21,0.22,0.488,0.413,0.835,0.579c0.346,0.166,0.739,0.315,1.179,0.447
			c0.44,0.132,0.889,0.276,1.349,0.432c0.459,0.157,0.908,0.335,1.348,0.534c0.439,0.2,0.833,0.455,1.18,0.762
			c0.346,0.307,0.625,0.677,0.834,1.106c0.21,0.43,0.316,0.948,0.316,1.553c0,0.723-0.132,1.389-0.396,1.999
			c-0.264,0.611-0.65,1.138-1.157,1.582c-0.508,0.445-1.135,0.791-1.882,1.04c-0.748,0.249-1.604,0.374-2.572,0.374
			c-0.518,0-1.024-0.046-1.517-0.139c-0.493-0.093-0.966-0.222-1.421-0.388c-0.454-0.166-0.874-0.362-1.26-0.586
			c-0.386-0.225-0.725-0.469-1.018-0.733l0.834-1.377c0.108-0.166,0.234-0.293,0.381-0.381c0.147-0.088,0.332-0.131,0.557-0.131
			c0.224,0,0.438,0.064,0.638,0.19c0.199,0.127,0.432,0.264,0.695,0.41c0.264,0.147,0.574,0.283,0.93,0.411
			c0.356,0.126,0.809,0.19,1.356,0.19c0.429,0,0.798-0.051,1.106-0.154c0.307-0.102,0.561-0.236,0.761-0.402
			c0.2-0.166,0.347-0.359,0.439-0.579c0.093-0.22,0.139-0.447,0.139-0.681c0-0.352-0.105-0.64-0.315-0.864
			c-0.21-0.225-0.488-0.42-0.835-0.586c-0.347-0.166-0.742-0.316-1.186-0.447c-0.445-0.132-0.899-0.276-1.363-0.433
			c-0.463-0.156-0.917-0.339-1.362-0.549c-0.444-0.21-0.84-0.476-1.186-0.798c-0.347-0.322-0.626-0.718-0.835-1.187
			c-0.21-0.469-0.315-1.035-0.315-1.699c0-0.616,0.122-1.201,0.366-1.758c0.244-0.557,0.603-1.042,1.076-1.457
			c0.474-0.415,1.064-0.747,1.773-0.996c0.708-0.249,1.526-0.373,2.453-0.373c1.036,0,1.978,0.171,2.828,0.513
			c0.849,0.342,1.557,0.791,2.124,1.348L140.858,16.699z"/>
		<path fill="#FFFFFF" d="M144.74,28.801V7.03h3.618v8.365c0.586-0.557,1.231-1.006,1.935-1.348
			c0.702-0.342,1.528-0.513,2.476-0.513c0.821,0,1.548,0.139,2.183,0.417c0.635,0.279,1.165,0.669,1.589,1.172
			s0.747,1.104,0.967,1.802c0.22,0.699,0.33,1.468,0.33,2.308v9.567h-3.619v-9.567c0-0.918-0.212-1.628-0.637-2.132
			c-0.425-0.503-1.062-0.754-1.912-0.754c-0.626,0-1.212,0.142-1.758,0.425c-0.547,0.283-1.065,0.669-1.553,1.157v10.871H144.74z"/>
	</g>
	<circle fill="none" stroke="#FFFFFF" stroke-width="3" stroke-miterlimit="10" cx="18.033" cy="18.033" r="16.533"/>
	<text transform="matrix(1 0 0 1 12.3668 24.6851)" fill="#FFFFFF" font-family="'Lato-Bold'" font-size="19.5376">$</text>
</g>
</svg>
