<?xml version="1.0" encoding="utf-8"?>
<!-- Generator: Adobe Illustrator 17.0.0, SVG Export Plug-In . SVG Version: 6.00 Build 0)  -->
<!DOCTYPE svg PUBLIC "-//W3C//DTD SVG 1.1//EN" "http://www.w3.org/Graphics/SVG/1.1/DTD/svg11.dtd">
<svg version="1.1" id="Layer_1" xmlns="http://www.w3.org/2000/svg" xmlns:xlink="http://www.w3.org/1999/xlink" x="0px" y="0px"
	 width="30px" height="30px" viewBox="0 0 30 30" enable-background="new 0 0 30 30" xml:space="preserve">
<circle fill="#00BFFF" cx="15" cy="15" r="15"/>
<g>
	<path fill="#FFFFFF" d="M20.067,11.566c-0.069-0.069-0.157-0.104-0.265-0.104h-1.969c-0.131-0.637-0.376-1.19-0.737-1.658h2.683
		c0.108,0,0.196-0.035,0.265-0.103c0.069-0.069,0.103-0.157,0.103-0.265V8.261c0-0.108-0.034-0.196-0.103-0.265
		c-0.069-0.069-0.157-0.104-0.265-0.104h-9.582c-0.108,0-0.196,0.035-0.265,0.104C9.864,8.065,9.829,8.153,9.829,8.261v1.532
		c0,0.1,0.036,0.186,0.109,0.259c0.073,0.073,0.159,0.109,0.259,0.109h1.67c1.62,0,2.649,0.434,3.086,1.301h-4.756
		c-0.108,0-0.196,0.034-0.265,0.104c-0.069,0.069-0.104,0.157-0.104,0.265v1.175c0,0.107,0.034,0.196,0.104,0.265
		c0.069,0.069,0.158,0.104,0.265,0.104h4.918c-0.169,0.63-0.562,1.11-1.181,1.44c-0.618,0.33-1.434,0.495-2.447,0.495h-1.29
		c-0.1,0-0.186,0.037-0.259,0.109c-0.073,0.073-0.109,0.159-0.109,0.259v1.463c0,0.1,0.034,0.184,0.104,0.253
		c1.474,1.566,3.386,3.758,5.735,6.576c0.069,0.092,0.165,0.138,0.288,0.138h2.246c0.161,0,0.273-0.069,0.334-0.207
		c0.077-0.138,0.062-0.269-0.046-0.392c-2.242-2.749-4.004-4.806-5.286-6.173c1.305-0.154,2.365-0.576,3.179-1.267
		c0.814-0.691,1.309-1.589,1.486-2.695h1.935c0.107,0,0.196-0.034,0.265-0.104c0.069-0.069,0.104-0.157,0.104-0.265v-1.175
		C20.171,11.723,20.137,11.635,20.067,11.566z"/>
</g>
</svg>
